# xmcd
#
# Track frame offsets: 
#        150
#        23063
#        33418
#        49010
#        54678
#        85492
#        106992
#        125134
#        143220
#        144465
#        163082
#        173912
#        185821
#        217625
#        239422
#        256048
#        266658
#        272947
#
# Disc length: 4204 seconds
#
# Revision: 0
# Processed by: cddbd v1.5.2PL0 Copyright (c) Steve Scherf et al.
# Submitted via: ExactAudioCopyFreeDBPlugin 1.0
#
DISCID=0c106a12
DTITLE=James Brown - Live at Home with His Bad Self
DYEAR=2019
DGENRE=Funk
TTITLE0=Say It Loud – I'm Black and I'm Proud
TTITLE1=James Brown Thanks and Introduction to "World"
TTITLE2=World
TTITLE3=Stage Dialogue
TTITLE4=Lowdown Popcorn
TTITLE5=Spinning Wheel
TTITLE6=If I Ruled the World
TTITLE7=Kansas City
TTITLE8=Introduction to Startime
TTITLE9=I Don't Want Nobody to Give Me Nothing (Open Up the Door I'll 
TTITLE9=Get It Myself)
TTITLE10=I Got the Feelin' - Licking Stick-Licking Stick
TTITLE11=Try Me
TTITLE12=There Was a Time
TTITLE13=Give It Up or Turnit a Loose
TTITLE14=It's a Man's Man's Man's World
TTITLE15=Please, Please, Please
TTITLE16=I Can't Stand Myself (When You Touch Me)
TTITLE17=Mother Popcorn
EXTD=
EXTT0=
EXTT1=
EXTT2=
EXTT3=
EXTT4=
EXTT5=
EXTT6=
EXTT7=
EXTT8=
EXTT9=
EXTT10=
EXTT11=
EXTT12=
EXTT13=
EXTT14=
EXTT15=
EXTT16=
EXTT17=
PLAYORDER=
